General
Complete name                            : Superman Batman - Public Enemies (HD 720p).m4v
Format                                   : MPEG-4
Codec ID                                 : M4V 
File size                                : 1.92 GiB
Duration                                 : 1h 7mn
Overall bit rate mode                    : Variable
Overall bit rate                         : 4 110 Kbps
Movie name                               : Superman Batman - Public Enemies
Performer                                : Kevin Conroy, Tim Daly, Clancy Brown, LeVar Burton, Xander Berkeley, Ricardo Chavira, John C. McGinley, CCH Pounder, Jennifer Hale, Allison Mack
Genre                                    : Animation, Action, Adventure
Recorded date                            : 2009-09-29
Encoded date                             : UTC 2012-08-13 17:02:21
Tagged date                              : UTC 2012-08-13 17:04:47
Cover                                    : Yes
desc                                     : United States President Lex Luthor uses the oncoming trajectory of a Kryptonite meteor to frame Superman and declare a $1 billion bounty on the heads of the Man of Steel and his ΓÇÿpartner in crimeΓÇÖ, Batman. Heroes and villains alike launch a relentless pursuit of Superman and Batman, who must uniteΓÇöand recruit helpΓÇöto try and stave off the action-packed onslaught, stop the meteor Luthors plot.
ldes                                     : United States President Lex Luthor uses the oncoming trajectory of a Kryptonite meteor to frame Superman and declare a $1 billion bounty on the heads of the Man of Steel and his ΓÇÿpartner in crimeΓÇÖ, Batman. Heroes and villains alike launch a relentless pursuit of Superman and Batman, who must uniteΓÇöand recruit helpΓÇöto try and stave off the action-packed onslaught, stop the meteor Luthors plot.
hdvd                                     : 1
stik                                     : 9
rtng                                     : 0
iTunEXTC                                 : mpaa|PG-13|300|

Video #1
ID                                       : 1
Format                                   : AVC
Format/Info                              : Advanced Video Codec
Format profile                           : Main@L3.1
Format settings, CABAC                   : Yes
Format settings, ReFrames                : 1 frame
Codec ID                                 : avc1
Codec ID/Info                            : Advanced Video Coding
Duration                                 : 1h 7mn
Bit rate mode                            : Variable
Bit rate                                 : 3 899 Kbps
Width                                    : 1 280 pixels
Height                                   : 720 pixels
Display aspect ratio                     : 16:9
Frame rate mode                          : Variable
Frame rate                               : 23.976 fps
Minimum frame rate                       : 23.810 fps
Maximum frame rate                       : 24.390 fps
Color space                              : YUV
Chroma subsampling                       : 4:2:0
Bit depth                                : 8 bits
Scan type                                : Progressive
Bits/(Pixel*Frame)                       : 0.176
Stream size                              : 1.83 GiB (95%)
Writing library                          : x264 core 68 r1183M f21daff
Encoding settings                        : cabac=1 / ref=1 / deblock=1:0:0 / analyse=0x1:0x111 / me=hex / subme=6 / psy_rd=1.0:0.0 / mixed_ref=0 / me_range=16 / chroma_me=1 / trellis=0 / 8x8dct=0 / cqm=0 / deadzone=21,11 / chroma_qp_offset=-2 / threads=3 / nr=0 / decimate=1 / mbaff=0 / bframes=0 / keyint=250 / keyint_min=25 / scenecut=40 / rc=2pass / bitrate=3899 / ratetol=1.0 / qcomp=0.60 / qpmin=10 / qpmax=51 / qpstep=4 / cplxblur=20.0 / qblur=0.5 / ip_ratio=1.40 / aq=1:1.00
Language                                 : English
Encoded date                             : UTC 2012-08-13 17:02:21
Tagged date                              : UTC 2012-08-13 17:04:08

Video #2
ID                                       : 4
Format                                   : JPEG
Codec ID                                 : jpeg
Duration                                 : 1h 7mn
Duration_LastFrame                       : -57s 935ms
Bit rate mode                            : Variable
Bit rate                                 : 3 090 bps
Width                                    : 640 pixels
Height                                   : 360 pixels
Display aspect ratio                     : 16:9
Frame rate mode                          : Constant
Frame rate                               : 0.008 fps
Color space                              : YUV
Chroma subsampling                       : 4:2:0
Bit depth                                : 8 bits
Compression mode                         : Lossy
Bits/(Pixel*Frame)                       : 1.676
Stream size                              : 1.57 MiB (0%)
Language                                 : English
Encoded date                             : UTC 2012-08-13 17:04:20
Tagged date                              : UTC 2012-08-13 17:04:22

Audio
ID                                       : 2
Format                                   : AAC
Format/Info                              : Advanced Audio Codec
Format profile                           : LC
Codec ID                                 : 40
Duration                                 : 1h 7mn
Bit rate mode                            : Variable
Bit rate                                 : 197 Kbps
Maximum bit rate                         : 303 Kbps
Channel(s)                               : 2 channels
Channel positions                        : Front: L R
Sampling rate                            : 48.0 KHz
Compression mode                         : Lossy
Stream size                              : 94.6 MiB (5%)
Language                                 : English
Encoded date                             : UTC 2012-08-13 17:02:21
Tagged date                              : UTC 2012-08-13 17:04:09